<svg xmlns="http://www.w3.org/2000/svg" width="134" height="29" fill="none" style=""><rect id="backgroundrect" width="100%" height="100%" x="0" y="0" fill="none" stroke="none"/>
<g class="currentLayer" style=""><title>Layer 1</title><path d="M13.0314,14.145319645690918 L6.65617,-3.5430908162936703e-7 H0 L9.54697,21.486119645690916 C9.58852,21.579119645690916 9.72109,21.579119645690916 9.760670000000001,21.486119645690916 L13.0314,14.145319645690918 z" fill="#131415" id="svg_1" class=""/><path d="M26.9332,-3.5430908162936703e-7 C26.9332,-3.5430908162936703e-7 18.2984,19.477819645690918 17.2181,21.862019645690918 C14.6359,27.558619645690918 12.7226,28.98521964569092 10.7736,29.289919645690915 C10.7558,29.291919645690918 10.7419,29.307719645690916 10.7419,29.32751964569092 C10.7419,29.347319645690916 10.7578,29.365119645690918 10.7795,29.365119645690918 H16.875700000000002 C19.5588,29.365119645690918 21.395,27.560519645690917 23.9811,21.862019645690918 C24.8853,19.871519645690917 33.7061,-3.5430908162936703e-7 33.7061,-3.5430908162936703e-7 H26.9332 V-3.5430908162936703e-7 z" fill="#131415" id="svg_2" class=""/><path d="M68.855,7.340719645690918 C64.5474,7.340719645690918 61.7773,10.130619645690917 61.7773,14.68151964569092 C61.7773,19.232319645690918 64.5474,22.022219645690917 68.855,22.022219645690917 C73.1526,22.022219645690917 75.9306,19.232319645690918 75.9306,14.68151964569092 C75.9326,10.130619645690917 73.1526,7.340719645690918 68.855,7.340719645690918 zM68.855,19.703319645690918 C66.1046,19.703319645690918 64.3041,17.912619645690917 64.3041,14.68151964569092 C64.3041,11.450319645690918 66.1046,9.659619645690917 68.855,9.659619645690917 C71.5954,9.659619645690917 73.4058,11.450319645690918 73.4058,14.68151964569092 C73.4058,17.912619645690917 71.5954,19.703319645690918 68.855,19.703319645690918 z" fill="#131415" id="svg_3" class=""/><path d="M90.543,7.665319645690918 V21.701819645690918 H87.6284 L80.6873,11.416819645690918 V21.701819645690918 H78.2021 V7.665319645690918 H81.1266 L88.0677,18.019619645690916 V7.665319645690918 H90.543 z" fill="#131415" id="svg_4" class=""/><path d="M133.527,10.014019645690919 V7.665319645690918 H123.436 V21.69991964569092 H133.527 V19.351219645690918 H125.921 V15.661019645690917 H132.934 V13.31241964569092 H125.921 V10.014019645690919 H133.527 z" fill="#131415" id="svg_5" class=""/><path d="M58.6569,7.665319645690918 L53.6272,18.710119645690916 C53.6015,18.767519645690918 53.5204,18.767519645690918 53.4927,18.710119645690916 L48.4629,7.665319645690918 H45.6196 C45.6196,7.665319645690918 50.5405,18.51821964569092 50.9224,19.36111964569092 C51.698,21.072619645690917 52.3391,21.862119645690917 53.5599,21.862119645690917 C54.7808,21.862119645690917 55.4218,21.072619645690917 56.1975,19.36111964569092 C56.5793,18.51821964569092 61.5002,7.665319645690918 61.5002,7.665319645690918 H58.6569 V7.665319645690918 z" fill="#131415" id="svg_6" class=""/><path d="M102.116,10.017919645690917 C101.364,8.296519645690918 100.8,7.516919645690919 99.6308,7.516919645690919 C98.4614,7.516919645690919 97.8975,8.294519645690919 97.1456,10.017919645690917 C96.7796,10.854919645690916 92.0645,21.71371964569092 92.0645,21.71371964569092 H94.6862 L96.1385,18.31441964569092 H103.121 L104.573,21.71371964569092 H107.195 C107.197,21.71371964569092 102.48,10.854919645690916 102.116,10.017919645690917 zM97.1456,15.957819645690918 L99.5635,10.277119645690917 C99.5893,10.217719645690917 99.6724,10.217719645690917 99.6981,10.277119645690917 L102.116,15.957819645690918 H97.1456 z" fill="#131415" id="svg_7" class=""/><path d="M114.071,14.085919645690918 V16.212919645690917 H118.284 C118.098,18.098619645690917 116.293,19.677519645690918 114.158,19.677519645690918 C111.633,19.677519645690918 109.799,17.831519645690918 109.799,14.782419645690918 C109.799,14.78041964569092 109.799,14.78041964569092 109.799,14.778419645690917 C109.799,11.60661964569092 111.495,9.659619645690917 114.386,9.659619645690917 C116.109,9.659619645690917 117.53,10.48471964569092 118.003,11.913319645690919 H120.575 C120.019,9.04431964569092 117.466,7.340719645690918 114.386,7.340719645690918 C109.991,7.340719645690918 107.274,10.217619645690917 107.274,14.837819645690917 C107.274,19.321419645690916 110.244,22.022219645690917 113.946,22.022219645690917 C117.124,22.022219645690917 118.333,20.17221964569092 118.669,19.580619645690916 V21.69971964569092 H120.872 V14.08391964569092 H114.071 V14.085919645690918 z" fill="#131415" id="svg_8" class=""/></g></svg>